<?xml version="1.0" standalone="no"?>
<!DOCTYPE svg PUBLIC "-//W3C//DTD SVG 20010904//EN"
 "http://www.w3.org/TR/2001/REC-SVG-20010904/DTD/svg10.dtd">
<svg version="1.0" xmlns="http://www.w3.org/2000/svg"
 width="126.000000pt" height="126.000000pt" viewBox="0 0 126.000000 126.000000"
 preserveAspectRatio="xMidYMid meet">
<metadata>
Created by potrace 1.14, written by Peter Selinger 2001-2017
</metadata>
<g transform="translate(0.000000,126.000000) scale(0.100000,-0.100000)"
fill="#000000" stroke="none">
<path d="M10 960 l0 -50 45 0 45 0 0 -285 0 -285 -45 0 -45 0 0 -50 0 -50 135
0 135 0 0 50 0 50 -45 0 -45 0 0 282 c0 155 3 278 7 274 5 -4 64 -154 133
-334 69 -179 130 -327 136 -329 6 -2 35 58 64 133 50 128 52 139 39 163 -22
39 -59 35 -81 -9 -15 -31 -17 -33 -24 -15 -4 11 -49 128 -100 260 l-92 240
-131 3 -131 3 0 -51z"/>
<path d="M659 973 c-6 -21 -40 -112 -75 -201 -35 -90 -64 -165 -64 -167 0 -1
11 0 25 3 14 2 35 -2 47 -10 23 -15 23 -14 83 141 l60 156 5 -249 c5 -264 5
-265 49 -179 23 46 26 74 11 89 -7 7 -2 18 14 33 15 14 26 19 31 12 4 -7 57
-11 146 -11 l140 0 -3 48 -3 47 -137 3 -138 3 0 109 0 110 155 0 154 0 3 -62
3 -63 45 0 45 0 3 113 3 112 -295 0 -294 0 -13 -37z"/>
<path d="M757 370 l-87 -125 282 -3 c156 -1 288 0 295 3 10 3 13 36 13 120 l0
115 -50 0 -50 0 0 -70 0 -70 -155 0 -154 0 -3 78 -3 78 -88 -126z"/>
</g>
</svg>
